ISO-10303-21;
HEADER;
FILE_DESCRIPTION(('FreeCAD Model'),'2;1');
FILE_NAME('Open CASCADE Shape Model','2026-03-30T13:33:42',('Author'),(
    ''),'Open CASCADE STEP processor 7.8','FreeCAD','Unknown');
FILE_SCHEMA(('AUTOMOTIVE_DESIGN { 1 0 10303 214 1 1 1 1 }'));
ENDSEC;
DATA;
#1 = APPLICATION_PROTOCOL_DEFINITION('international standard',
  'automotive_design',2000,#2);
#2 = APPLICATION_CONTEXT(
  'core data for automotive mechanical design processes');
#3 = SHAPE_DEFINITION_REPRESENTATION(#4,#10);
#4 = PRODUCT_DEFINITION_SHAPE('','',#5);
#5 = PRODUCT_DEFINITION('design','',#6,#9);
#6 = PRODUCT_DEFINITION_FORMATION('','',#7);
#7 = PRODUCT('Sketch011','Sketch011','',(#8));
#8 = PRODUCT_CONTEXT('',#2,'mechanical');
#9 = PRODUCT_DEFINITION_CONTEXT('part definition',#2,'design');
#10 = SHAPE_REPRESENTATION('',(#11,#15,#116,#139),#162);
#11 = AXIS2_PLACEMENT_3D('',#12,#13,#14);
#12 = CARTESIAN_POINT('',(0.,0.,0.));
#13 = DIRECTION('',(0.,0.,1.));
#14 = DIRECTION('',(1.,0.,-0.));
#15 = GEOMETRIC_CURVE_SET('',(#16,#23,#30,#37,#44,#51,#58,#65,#72,#79,
    #87,#94,#101,#109));
#16 = TRIMMED_CURVE('',#17,(#21,PARAMETER_VALUE(0.)),(#22,
    PARAMETER_VALUE(3.204208)),.T.,.PARAMETER.);
#17 = LINE('',#18,#19);
#18 = CARTESIAN_POINT('',(-6.,5.,0.));
#19 = VECTOR('',#20,1.);
#20 = DIRECTION('',(0.,1.,0.));
#21 = CARTESIAN_POINT('',(-6.,5.,0.));
#22 = CARTESIAN_POINT('',(-6.,8.204208,0.));
#23 = TRIMMED_CURVE('',#24,(#28,PARAMETER_VALUE(0.)),(#29,
    PARAMETER_VALUE(11.865376)),.T.,.PARAMETER.);
#24 = LINE('',#25,#26);
#25 = CARTESIAN_POINT('',(-6.,8.204208,0.));
#26 = VECTOR('',#27,1.);
#27 = DIRECTION('',(-1.,0.,0.));
#28 = CARTESIAN_POINT('',(-6.,8.204208,0.));
#29 = CARTESIAN_POINT('',(-17.865376,8.204208,0.));
#30 = TRIMMED_CURVE('',#31,(#35,PARAMETER_VALUE(0.)),(#36,
    PARAMETER_VALUE(24.32573)),.T.,.PARAMETER.);
#31 = LINE('',#32,#33);
#32 = CARTESIAN_POINT('',(-17.865376,8.204208,0.));
#33 = VECTOR('',#34,1.);
#34 = DIRECTION('',(0.,-1.,0.));
#35 = CARTESIAN_POINT('',(-17.865376,8.204208,0.));
#36 = CARTESIAN_POINT('',(-17.865376,-16.121522,0.));
#37 = TRIMMED_CURVE('',#38,(#42,PARAMETER_VALUE(0.)),(#43,
    PARAMETER_VALUE(17.865376)),.T.,.PARAMETER.);
#38 = LINE('',#39,#40);
#39 = CARTESIAN_POINT('',(-17.865376,-16.121522,0.));
#40 = VECTOR('',#41,1.);
#41 = DIRECTION('',(1.,0.,0.));
#42 = CARTESIAN_POINT('',(-17.865376,-16.121522,0.));
#43 = CARTESIAN_POINT('',(0.,-16.121522,0.));
#44 = TRIMMED_CURVE('',#45,(#49,PARAMETER_VALUE(0.)),(#50,
    PARAMETER_VALUE(17.865376)),.T.,.PARAMETER.);
#45 = LINE('',#46,#47);
#46 = CARTESIAN_POINT('',(17.865376,-16.121522,0.));
#47 = VECTOR('',#48,1.);
#48 = DIRECTION('',(-1.,0.,0.));
#49 = CARTESIAN_POINT('',(17.865376,-16.121522,0.));
#50 = CARTESIAN_POINT('',(0.,-16.121522,0.));
#51 = TRIMMED_CURVE('',#52,(#56,PARAMETER_VALUE(0.)),(#57,
    PARAMETER_VALUE(24.32573)),.T.,.PARAMETER.);
#52 = LINE('',#53,#54);
#53 = CARTESIAN_POINT('',(17.865376,8.204208,0.));
#54 = VECTOR('',#55,1.);
#55 = DIRECTION('',(0.,-1.,0.));
#56 = CARTESIAN_POINT('',(17.865376,8.204208,0.));
#57 = CARTESIAN_POINT('',(17.865376,-16.121522,0.));
#58 = TRIMMED_CURVE('',#59,(#63,PARAMETER_VALUE(0.)),(#64,
    PARAMETER_VALUE(11.865376)),.T.,.PARAMETER.);
#59 = LINE('',#60,#61);
#60 = CARTESIAN_POINT('',(6.,8.204208,0.));
#61 = VECTOR('',#62,1.);
#62 = DIRECTION('',(1.,0.,0.));
#63 = CARTESIAN_POINT('',(6.,8.204208,0.));
#64 = CARTESIAN_POINT('',(17.865376,8.204208,0.));
#65 = TRIMMED_CURVE('',#66,(#70,PARAMETER_VALUE(0.)),(#71,
    PARAMETER_VALUE(3.204208)),.T.,.PARAMETER.);
#66 = LINE('',#67,#68);
#67 = CARTESIAN_POINT('',(6.,5.,0.));
#68 = VECTOR('',#69,1.);
#69 = DIRECTION('',(0.,1.,0.));
#70 = CARTESIAN_POINT('',(6.,5.,0.));
#71 = CARTESIAN_POINT('',(6.,8.204208,0.));
#72 = TRIMMED_CURVE('',#73,(#77,PARAMETER_VALUE(0.)),(#78,
    PARAMETER_VALUE(7.655880093105)),.T.,.PARAMETER.);
#73 = LINE('',#74,#75);
#74 = CARTESIAN_POINT('',(6.,5.,0.));
#75 = VECTOR('',#76,1.);
#76 = DIRECTION('',(0.778032382022,-0.628224173782,0.));
#77 = CARTESIAN_POINT('',(6.,5.,0.));
#78 = CARTESIAN_POINT('',(11.956522625316,0.190391053932,0.));
#79 = TRIMMED_CURVE('',#80,(#85,PARAMETER_VALUE(4.701561650192)),(#86,
    PARAMETER_VALUE(7.174712989523)),.T.,.PARAMETER.);
#80 = CIRCLE('',#81,5.9);
#81 = AXIS2_PLACEMENT_3D('',#82,#83,#84);
#82 = CARTESIAN_POINT('',(8.25,-4.4,0.));
#83 = DIRECTION('',(0.,0.,1.));
#84 = DIRECTION('',(1.,0.,-0.));
#85 = CARTESIAN_POINT('',(8.18612,-10.29965417169,0.));
#86 = CARTESIAN_POINT('',(11.956522625316,0.190391053932,0.));
#87 = TRIMMED_CURVE('',#88,(#92,PARAMETER_VALUE(0.)),(#93,
    PARAMETER_VALUE(8.18612)),.T.,.PARAMETER.);
#88 = LINE('',#89,#90);
#89 = CARTESIAN_POINT('',(8.18612,-10.29965417169,0.));
#90 = VECTOR('',#91,1.);
#91 = DIRECTION('',(-1.,0.,0.));
#92 = CARTESIAN_POINT('',(8.18612,-10.29965417169,0.));
#93 = CARTESIAN_POINT('',(0.,-10.29965417169,0.));
#94 = TRIMMED_CURVE('',#95,(#99,PARAMETER_VALUE(0.)),(#100,
    PARAMETER_VALUE(8.18612)),.T.,.PARAMETER.);
#95 = LINE('',#96,#97);
#96 = CARTESIAN_POINT('',(-8.18612,-10.29965417169,0.));
#97 = VECTOR('',#98,1.);
#98 = DIRECTION('',(1.,0.,0.));
#99 = CARTESIAN_POINT('',(-8.18612,-10.29965417169,0.));
#100 = CARTESIAN_POINT('',(0.,-10.29965417169,0.));
#101 = TRIMMED_CURVE('',#102,(#107,PARAMETER_VALUE(2.250064971247)),(
    #108,PARAMETER_VALUE(4.723216310577)),.T.,.PARAMETER.);
#102 = CIRCLE('',#103,5.9);
#103 = AXIS2_PLACEMENT_3D('',#104,#105,#106);
#104 = CARTESIAN_POINT('',(-8.25,-4.4,0.));
#105 = DIRECTION('',(0.,0.,1.));
#106 = DIRECTION('',(1.,0.,-0.));
#107 = CARTESIAN_POINT('',(-11.95652262531,0.190391053932,0.));
#108 = CARTESIAN_POINT('',(-8.18612,-10.29965417169,0.));
#109 = TRIMMED_CURVE('',#110,(#114,PARAMETER_VALUE(0.)),(#115,
    PARAMETER_VALUE(7.655880093105)),.T.,.PARAMETER.);
#110 = LINE('',#111,#112);
#111 = CARTESIAN_POINT('',(-6.,5.,0.));
#112 = VECTOR('',#113,1.);
#113 = DIRECTION('',(-0.778032382022,-0.628224173782,0.));
#114 = CARTESIAN_POINT('',(-6.,5.,0.));
#115 = CARTESIAN_POINT('',(-11.95652262531,0.190391053932,0.));
#116 = GEOMETRIC_CURVE_SET('',(#117,#125,#132));
#117 = TRIMMED_CURVE('',#118,(#123,PARAMETER_VALUE(5.497787143782)),(
    #124,PARAMETER_VALUE(10.210176124167)),.T.,.PARAMETER.);
#118 = CIRCLE('',#119,2.75);
#119 = AXIS2_PLACEMENT_3D('',#120,#121,#122);
#120 = CARTESIAN_POINT('',(-8.25,-4.4,0.));
#121 = DIRECTION('',(0.,0.,1.));
#122 = DIRECTION('',(1.,0.,0.));
#123 = CARTESIAN_POINT('',(-6.305456351737,-6.344543648263,0.));
#124 = CARTESIAN_POINT('',(-10.19454364826,-6.344543648263,0.));
#125 = TRIMMED_CURVE('',#126,(#130,PARAMETER_VALUE(0.)),(#131,
    PARAMETER_VALUE(2.75)),.T.,.PARAMETER.);
#126 = LINE('',#127,#128);
#127 = CARTESIAN_POINT('',(-8.25,-8.289087296526,0.));
#128 = VECTOR('',#129,1.);
#129 = DIRECTION('',(-0.707106781187,0.707106781187,0.));
#130 = CARTESIAN_POINT('',(-8.25,-8.289087296526,0.));
#131 = CARTESIAN_POINT('',(-10.19454364826,-6.344543648263,0.));
#132 = TRIMMED_CURVE('',#133,(#137,PARAMETER_VALUE(0.)),(#138,
    PARAMETER_VALUE(2.75)),.T.,.PARAMETER.);
#133 = LINE('',#134,#135);
#134 = CARTESIAN_POINT('',(-6.305456351737,-6.344543648263,0.));
#135 = VECTOR('',#136,1.);
#136 = DIRECTION('',(-0.707106781187,-0.707106781187,0.));
#137 = CARTESIAN_POINT('',(-6.305456351737,-6.344543648263,0.));
#138 = CARTESIAN_POINT('',(-8.25,-8.289087296526,0.));
#139 = GEOMETRIC_CURVE_SET('',(#140,#148,#155));
#140 = TRIMMED_CURVE('',#141,(#146,PARAMETER_VALUE(5.497787143782)),(
    #147,PARAMETER_VALUE(10.210176124167)),.T.,.PARAMETER.);
#141 = CIRCLE('',#142,2.75);
#142 = AXIS2_PLACEMENT_3D('',#143,#144,#145);
#143 = CARTESIAN_POINT('',(8.25,-4.4,0.));
#144 = DIRECTION('',(0.,0.,1.));
#145 = DIRECTION('',(1.,0.,0.));
#146 = CARTESIAN_POINT('',(10.194543648263,-6.344543648263,0.));
#147 = CARTESIAN_POINT('',(6.305456351737,-6.344543648263,0.));
#148 = TRIMMED_CURVE('',#149,(#153,PARAMETER_VALUE(0.)),(#154,
    PARAMETER_VALUE(2.75)),.T.,.PARAMETER.);
#149 = LINE('',#150,#151);
#150 = CARTESIAN_POINT('',(6.305456351737,-6.344543648263,0.));
#151 = VECTOR('',#152,1.);
#152 = DIRECTION('',(0.707106781187,-0.707106781187,0.));
#153 = CARTESIAN_POINT('',(6.305456351737,-6.344543648263,0.));
#154 = CARTESIAN_POINT('',(8.25,-8.289087296526,0.));
#155 = TRIMMED_CURVE('',#156,(#160,PARAMETER_VALUE(0.)),(#161,
    PARAMETER_VALUE(2.75)),.T.,.PARAMETER.);
#156 = LINE('',#157,#158);
#157 = CARTESIAN_POINT('',(8.25,-8.289087296526,0.));
#158 = VECTOR('',#159,1.);
#159 = DIRECTION('',(0.707106781187,0.707106781187,0.));
#160 = CARTESIAN_POINT('',(8.25,-8.289087296526,0.));
#161 = CARTESIAN_POINT('',(10.194543648263,-6.344543648263,0.));
#162 = ( GEOMETRIC_REPRESENTATION_CONTEXT(3) 
GLOBAL_UNCERTAINTY_ASSIGNED_CONTEXT((#166)) GLOBAL_UNIT_ASSIGNED_CONTEXT
((#163,#164,#165)) REPRESENTATION_CONTEXT('Context #1',
  '3D Context with UNIT and UNCERTAINTY') );
#163 = ( LENGTH_UNIT() NAMED_UNIT(*) SI_UNIT(.MILLI.,.METRE.) );
#164 = ( NAMED_UNIT(*) PLANE_ANGLE_UNIT() SI_UNIT($,.RADIAN.) );
#165 = ( NAMED_UNIT(*) SI_UNIT($,.STERADIAN.) SOLID_ANGLE_UNIT() );
#166 = UNCERTAINTY_MEASURE_WITH_UNIT(LENGTH_MEASURE(1.E-07),#163,
  'distance_accuracy_value','confusion accuracy');
#167 = PRODUCT_RELATED_PRODUCT_CATEGORY('part',$,(#7));
#168 = MECHANICAL_DESIGN_GEOMETRIC_PRESENTATION_REPRESENTATION('',(#169,
    #182,#193),#162);
#169 = STYLED_ITEM('color',(#170),#15);
#170 = PRESENTATION_STYLE_ASSIGNMENT((#171,#179));
#171 = SURFACE_STYLE_USAGE(.BOTH.,#172);
#172 = SURFACE_SIDE_STYLE('',(#173,#177));
#173 = SURFACE_STYLE_FILL_AREA(#174);
#174 = FILL_AREA_STYLE('',(#175));
#175 = FILL_AREA_STYLE_COLOUR('',#176);
#176 = COLOUR_RGB('',0.329411773243,0.670588257465,1.);
#177 = SURFACE_STYLE_RENDERING_WITH_PROPERTIES(.NORMAL_SHADING.,#176,(
    #178));
#178 = SURFACE_STYLE_TRANSPARENT(0.749019622803);
#179 = CURVE_STYLE('',#180,POSITIVE_LENGTH_MEASURE(0.1),#181);
#180 = DRAUGHTING_PRE_DEFINED_CURVE_FONT('continuous');
#181 = COLOUR_RGB('',0.945098040599,0.952941189437,0.960784305148);
#182 = STYLED_ITEM('color',(#183),#116);
#183 = PRESENTATION_STYLE_ASSIGNMENT((#184,#191));
#184 = SURFACE_STYLE_USAGE(.BOTH.,#185);
#185 = SURFACE_SIDE_STYLE('',(#186,#189));
#186 = SURFACE_STYLE_FILL_AREA(#187);
#187 = FILL_AREA_STYLE('',(#188));
#188 = FILL_AREA_STYLE_COLOUR('',#176);
#189 = SURFACE_STYLE_RENDERING_WITH_PROPERTIES(.NORMAL_SHADING.,#176,(
    #190));
#190 = SURFACE_STYLE_TRANSPARENT(0.749019622803);
#191 = CURVE_STYLE('',#192,POSITIVE_LENGTH_MEASURE(0.1),#181);
#192 = DRAUGHTING_PRE_DEFINED_CURVE_FONT('continuous');
#193 = STYLED_ITEM('color',(#194),#139);
#194 = PRESENTATION_STYLE_ASSIGNMENT((#195,#202));
#195 = SURFACE_STYLE_USAGE(.BOTH.,#196);
#196 = SURFACE_SIDE_STYLE('',(#197,#200));
#197 = SURFACE_STYLE_FILL_AREA(#198);
#198 = FILL_AREA_STYLE('',(#199));
#199 = FILL_AREA_STYLE_COLOUR('',#176);
#200 = SURFACE_STYLE_RENDERING_WITH_PROPERTIES(.NORMAL_SHADING.,#176,(
    #201));
#201 = SURFACE_STYLE_TRANSPARENT(0.749019622803);
#202 = CURVE_STYLE('',#203,POSITIVE_LENGTH_MEASURE(0.1),#181);
#203 = DRAUGHTING_PRE_DEFINED_CURVE_FONT('continuous');
ENDSEC;
END-ISO-10303-21;
